<mxfile host="65bd71144e">
    <diagram id="Ok8e5DZ3sW4--xVq1_N-" name="PÃ¡gina-1">
        <mxGraphModel dx="1845" dy="591" grid="1" gridSize="10" guides="1" tooltips="1" connect="1" arrows="1" fold="1" page="1" pageScale="1" pageWidth="827" pageHeight="1169" background="none" math="0" shadow="0">
            <root>
                <mxCell id="0"/>
                <mxCell id="1" parent="0"/>
                <mxCell id="11" style="edgeStyle=none;html=1;exitX=0.5;exitY=1;exitDx=0;exitDy=0;entryX=0.5;entryY=0;entryDx=0;entryDy=0;" edge="1" parent="1" source="2" target="3">
                    <mxGeometry relative="1" as="geometry"/>
                </mxCell>
                <mxCell id="2" value="INICIO" style="ellipse;whiteSpace=wrap;html=1;fillColor=#dae8fc;gradientColor=#7ea6e0;strokeColor=#6c8ebf;" vertex="1" parent="1">
                    <mxGeometry x="250" y="20" width="100" height="40" as="geometry"/>
                </mxCell>
                <mxCell id="12" style="edgeStyle=none;html=1;exitX=0.5;exitY=1;exitDx=0;exitDy=0;entryX=0.5;entryY=0;entryDx=0;entryDy=0;" edge="1" parent="1" source="3" target="4">
                    <mxGeometry relative="1" as="geometry"/>
                </mxCell>
                <mxCell id="3" value="pygame.init()" style="rounded=0;whiteSpace=wrap;html=1;fillColor=#f8cecc;gradientColor=#ea6b66;strokeColor=#b85450;" vertex="1" parent="1">
                    <mxGeometry x="240" y="80" width="120" height="60" as="geometry"/>
                </mxCell>
                <mxCell id="17" value="" style="edgeStyle=none;html=1;" edge="1" parent="1" source="4" target="15">
                    <mxGeometry relative="1" as="geometry"/>
                </mxCell>
                <mxCell id="4" value="&lt;div style=&quot;font-family: &amp;quot;Droid Sans Mono&amp;quot;, &amp;quot;monospace&amp;quot;, monospace; font-size: 14px; line-height: 19px; white-space: pre;&quot;&gt;&lt;div style=&quot;&quot;&gt;&lt;div style=&quot;line-height: 19px;&quot;&gt;&lt;div style=&quot;&quot;&gt;&lt;span style=&quot;background-color: light-dark(#ffffff, var(--ge-dark-color, #121212));&quot;&gt;&lt;font style=&quot;color: rgb(0, 0, 0);&quot;&gt;ANCHURA_VENTANA = 600&lt;/font&gt;&lt;/span&gt;&lt;/div&gt;&lt;div style=&quot;&quot;&gt;&lt;span style=&quot;background-color: light-dark(#ffffff, var(--ge-dark-color, #121212));&quot;&gt;&lt;font style=&quot;color: rgb(0, 0, 0);&quot;&gt;&lt;span&gt;ALTURA_VENTANA&lt;/span&gt;&lt;span&gt; &lt;/span&gt;&lt;span&gt;=&lt;/span&gt;&lt;span&gt; &lt;/span&gt;&lt;span&gt;600&lt;/span&gt;&lt;/font&gt;&lt;/span&gt;&lt;/div&gt;&lt;span style=&quot;background-color: light-dark(#ffffff, var(--ge-dark-color, #121212));&quot;&gt;&lt;font style=&quot;color: rgb(0, 0, 0);&quot;&gt;&lt;br&gt;&lt;/font&gt;&lt;/span&gt;&lt;div style=&quot;&quot;&gt;&lt;span style=&quot;background-color: light-dark(#ffffff, var(--ge-dark-color, #121212));&quot;&gt;&lt;font style=&quot;color: rgb(0, 0, 0);&quot;&gt;&lt;span&gt;COLOR_FONDO&lt;/span&gt;&lt;span&gt; &lt;/span&gt;&lt;span&gt;=&lt;/span&gt;&lt;span&gt; (&lt;/span&gt;&lt;span&gt;255&lt;/span&gt;&lt;span&gt;, &lt;/span&gt;&lt;span&gt;255&lt;/span&gt;&lt;span&gt;, &lt;/span&gt;&lt;span&gt;250&lt;/span&gt;&lt;span&gt;)&lt;/span&gt;&lt;/font&gt;&lt;/span&gt;&lt;/div&gt;&lt;div style=&quot;&quot;&gt;&lt;span style=&quot;background-color: rgb(255, 255, 255);&quot;&gt;&lt;font style=&quot;color: rgb(0, 0, 0);&quot;&gt;&lt;div style=&quot;color: rgb(63, 63, 63); scrollbar-color: light-dark(#e2e2e2, #4b4b4b)&lt;br/&gt;&#x9;&#x9;&#x9;&#x9;&#x9;light-dark(#fbfbfb, var(--dark-panel-color)); background-color: rgb(251, 251, 251);&quot;&gt;&lt;span style=&quot;scrollbar-color: light-dark(#e2e2e2, #4b4b4b)&lt;br/&gt;&#x9;&#x9;&#x9;&#x9;&#x9;light-dark(#fbfbfb, var(--dark-panel-color)); background-color: light-dark(#ffffff, var(--ge-dark-color, #121212));&quot;&gt;&lt;font style=&quot;scrollbar-color: light-dark(#e2e2e2, #4b4b4b)&lt;br/&gt;&#x9;&#x9;&#x9;&#x9;&#x9;light-dark(#fbfbfb, var(--dark-panel-color)); color: rgb(0, 0, 0);&quot;&gt;&lt;span style=&quot;scrollbar-color: light-dark(#e2e2e2, #4b4b4b)&lt;br/&gt;&#x9;&#x9;&#x9;&#x9;&#x9;light-dark(#fbfbfb, var(--dark-panel-color));&quot;&gt;PANTALLA&lt;/span&gt;&lt;span style=&quot;scrollbar-color: light-dark(#e2e2e2, #4b4b4b)&lt;br/&gt;&#x9;&#x9;&#x9;&#x9;&#x9;light-dark(#fbfbfb, var(--dark-panel-color));&quot;&gt; &lt;/span&gt;&lt;span style=&quot;scrollbar-color: light-dark(#e2e2e2, #4b4b4b)&lt;br/&gt;&#x9;&#x9;&#x9;&#x9;&#x9;light-dark(#fbfbfb, var(--dark-panel-color));&quot;&gt;=&lt;/span&gt;&lt;span style=&quot;scrollbar-color: light-dark(#e2e2e2, #4b4b4b)&lt;br/&gt;&#x9;&#x9;&#x9;&#x9;&#x9;light-dark(#fbfbfb, var(--dark-panel-color));&quot;&gt; &lt;/span&gt;&lt;span style=&quot;scrollbar-color: light-dark(#e2e2e2, #4b4b4b)&lt;br/&gt;&#x9;&#x9;&#x9;&#x9;&#x9;light-dark(#fbfbfb, var(--dark-panel-color));&quot;&gt;pygame&lt;/span&gt;&lt;span style=&quot;scrollbar-color: light-dark(#e2e2e2, #4b4b4b)&lt;br/&gt;&#x9;&#x9;&#x9;&#x9;&#x9;light-dark(#fbfbfb, var(--dark-panel-color));&quot;&gt;.&lt;/span&gt;&lt;span style=&quot;scrollbar-color: light-dark(#e2e2e2, #4b4b4b)&lt;br/&gt;&#x9;&#x9;&#x9;&#x9;&#x9;light-dark(#fbfbfb, var(--dark-panel-color));&quot;&gt;display&lt;/span&gt;&lt;span style=&quot;scrollbar-color: light-dark(#e2e2e2, #4b4b4b)&lt;br/&gt;&#x9;&#x9;&#x9;&#x9;&#x9;light-dark(#fbfbfb, var(--dark-panel-color));&quot;&gt;.&lt;/span&gt;&lt;span style=&quot;scrollbar-color: light-dark(#e2e2e2, #4b4b4b)&lt;br/&gt;&#x9;&#x9;&#x9;&#x9;&#x9;light-dark(#fbfbfb, var(--dark-panel-color));&quot;&gt;set_mode&lt;/span&gt;&lt;span style=&quot;scrollbar-color: light-dark(#e2e2e2, #4b4b4b)&lt;br/&gt;&#x9;&#x9;&#x9;&#x9;&#x9;light-dark(#fbfbfb, var(--dark-panel-color));&quot;&gt;((&lt;/span&gt;&lt;span style=&quot;scrollbar-color: light-dark(#e2e2e2, #4b4b4b)&lt;br/&gt;&#x9;&#x9;&#x9;&#x9;&#x9;light-dark(#fbfbfb, var(--dark-panel-color));&quot;&gt;ALTURA_VENTANA&lt;/span&gt;&lt;span style=&quot;scrollbar-color: light-dark(#e2e2e2, #4b4b4b)&lt;br/&gt;&#x9;&#x9;&#x9;&#x9;&#x9;light-dark(#fbfbfb, var(--dark-panel-color));&quot;&gt;, &lt;/span&gt;&lt;span style=&quot;scrollbar-color: light-dark(#e2e2e2, #4b4b4b)&lt;br/&gt;&#x9;&#x9;&#x9;&#x9;&#x9;light-dark(#fbfbfb, var(--dark-panel-color));&quot;&gt;ANCHURA_VENTANA))&lt;/span&gt;&lt;/font&gt;&lt;/span&gt;&lt;/div&gt;&lt;div&gt;&lt;span style=&quot;scrollbar-color: light-dark(#e2e2e2, #4b4b4b)&lt;br/&gt;&#x9;&#x9;&#x9;&#x9;&#x9;light-dark(#fbfbfb, var(--dark-panel-color)); background-color: rgb(255, 255, 255);&quot;&gt;&lt;font style=&quot;scrollbar-color: light-dark(#e2e2e2, #4b4b4b)&lt;br/&gt;&#x9;&#x9;&#x9;&#x9;&#x9;light-dark(#fbfbfb, var(--dark-panel-color)); color: rgb(0, 0, 0);&quot;&gt;&lt;span style=&quot;scrollbar-color: light-dark(#e2e2e2, #4b4b4b)&lt;br/&gt;&#x9;&#x9;&#x9;&#x9;&#x9;light-dark(#fbfbfb, var(--dark-panel-color));&quot;&gt;&lt;br&gt;&lt;/span&gt;&lt;/font&gt;&lt;/span&gt;&lt;/div&gt;&lt;/font&gt;&lt;/span&gt;&lt;/div&gt;&lt;/div&gt;&lt;/div&gt;&lt;/div&gt;" style="rounded=0;whiteSpace=wrap;html=1;fillColor=#fff2cc;gradientColor=#ffd966;strokeColor=#d6b656;" vertex="1" parent="1">
                    <mxGeometry x="-17.5" y="170" width="635" height="120" as="geometry"/>
                </mxCell>
                <mxCell id="20" value="" style="edgeStyle=none;html=1;" edge="1" parent="1" source="7" target="19">
                    <mxGeometry relative="1" as="geometry"/>
                </mxCell>
                <mxCell id="7" value="&lt;div style=&quot;font-family: &amp;quot;Droid Sans Mono&amp;quot;, &amp;quot;monospace&amp;quot;, monospace; font-size: 14px; line-height: 19px; white-space: pre;&quot;&gt;&lt;div style=&quot;&quot;&gt;&lt;span style=&quot;background-color: rgb(255, 255, 255);&quot;&gt;&lt;font style=&quot;color: rgb(0, 0, 0);&quot;&gt;&lt;span&gt;XX_COHETE&lt;/span&gt;&lt;span&gt; &lt;/span&gt;&lt;span&gt;=&lt;/span&gt;&lt;span&gt; &lt;/span&gt;&lt;span&gt;210&lt;/span&gt;&lt;/font&gt;&lt;/span&gt;&lt;/div&gt;&lt;div style=&quot;&quot;&gt;&lt;span style=&quot;background-color: rgb(255, 255, 255);&quot;&gt;&lt;font style=&quot;color: rgb(0, 0, 0);&quot;&gt;&lt;span&gt;YY_COHETE&lt;/span&gt;&lt;span&gt; &lt;/span&gt;&lt;span&gt;=&lt;/span&gt;&lt;span&gt; &lt;/span&gt;&lt;span&gt;300&lt;/span&gt;&lt;/font&gt;&lt;/span&gt;&lt;/div&gt;&lt;div style=&quot;&quot;&gt;&lt;span style=&quot;background-color: rgb(255, 255, 255);&quot;&gt;&lt;font style=&quot;color: rgb(0, 0, 0);&quot;&gt;&lt;span&gt;ALTURA_COHETE&lt;/span&gt;&lt;span&gt; &lt;/span&gt;&lt;span&gt;=&lt;/span&gt;&lt;span&gt; &lt;/span&gt;&lt;span&gt;32&lt;/span&gt;&lt;/font&gt;&lt;/span&gt;&lt;/div&gt;&lt;div style=&quot;&quot;&gt;&lt;span style=&quot;background-color: rgb(255, 255, 255);&quot;&gt;&lt;font style=&quot;color: rgb(0, 0, 0);&quot;&gt;&lt;span&gt;ANCHURA_COHETE&lt;/span&gt;&lt;span&gt; &lt;/span&gt;&lt;span&gt;=&lt;/span&gt;&lt;span&gt; &lt;/span&gt;&lt;span&gt;32&lt;/span&gt;&lt;/font&gt;&lt;/span&gt;&lt;/div&gt;&lt;div style=&quot;&quot;&gt;&lt;span style=&quot;background-color: rgb(255, 255, 255);&quot;&gt;&lt;font style=&quot;color: rgb(0, 0, 0);&quot;&gt;&lt;span&gt;MOVIMIENTO_XX_COHETE&lt;/span&gt;&lt;span&gt; &lt;/span&gt;&lt;span&gt;=&lt;/span&gt;&lt;span&gt; &lt;/span&gt;&lt;span&gt;0&lt;/span&gt;&lt;/font&gt;&lt;/span&gt;&lt;/div&gt;&lt;/div&gt;" style="rounded=0;whiteSpace=wrap;html=1;fillColor=#f5f5f5;gradientColor=#b3b3b3;strokeColor=#666666;" vertex="1" parent="1">
                    <mxGeometry x="195" y="400" width="210" height="110" as="geometry"/>
                </mxCell>
                <mxCell id="18" value="" style="edgeStyle=none;html=1;" edge="1" parent="1" source="15" target="7">
                    <mxGeometry relative="1" as="geometry"/>
                </mxCell>
                <mxCell id="15" value="&lt;div style=&quot;font-family: &amp;quot;Droid Sans Mono&amp;quot;, &amp;quot;monospace&amp;quot;, monospace; font-size: 14px; line-height: 19px; white-space: pre;&quot;&gt;&lt;span style=&quot;background-color: rgb(255, 255, 255);&quot;&gt;&lt;font style=&quot;color: rgb(0, 0, 0);&quot;&gt;&lt;span&gt;PARAR_JUEGO&lt;/span&gt;&lt;span&gt; &lt;/span&gt;&lt;span&gt;=&lt;/span&gt;&lt;span&gt; &lt;/span&gt;&lt;span&gt;False&lt;/span&gt;&lt;/font&gt;&lt;/span&gt;&lt;/div&gt;" style="rounded=0;whiteSpace=wrap;html=1;fillColor=#e6d0de;gradientColor=#d5739d;strokeColor=#996185;" vertex="1" parent="1">
                    <mxGeometry x="215" y="310" width="170" height="60" as="geometry"/>
                </mxCell>
                <mxCell id="22" value="" style="edgeStyle=none;html=1;" edge="1" parent="1" source="19" target="21">
                    <mxGeometry relative="1" as="geometry"/>
                </mxCell>
                <mxCell id="19" value="&lt;div style=&quot;font-family: &amp;quot;Droid Sans Mono&amp;quot;, &amp;quot;monospace&amp;quot;, monospace; font-size: 14px; line-height: 19px; white-space: pre;&quot;&gt;&lt;div style=&quot;&quot;&gt;&lt;font style=&quot;background-color: rgb(255, 255, 255); color: rgb(0, 0, 0);&quot;&gt;&lt;span&gt;XX_PLANETA&lt;/span&gt;&lt;span&gt; &lt;/span&gt;&lt;span&gt;=&lt;/span&gt;&lt;span&gt; &lt;/span&gt;&lt;span&gt;randint&lt;/span&gt;&lt;span&gt;(&lt;/span&gt;&lt;span&gt;30&lt;/span&gt;&lt;span&gt;, &lt;/span&gt;&lt;span&gt;130&lt;/span&gt;&lt;span&gt;)&lt;/span&gt;&lt;/font&gt;&lt;/div&gt;&lt;div style=&quot;&quot;&gt;&lt;font style=&quot;background-color: rgb(255, 255, 255); color: rgb(0, 0, 0);&quot;&gt;&lt;span&gt;YY_PLANETA&lt;/span&gt;&lt;span&gt; &lt;/span&gt;&lt;span&gt;=&lt;/span&gt;&lt;span&gt; &lt;/span&gt;&lt;span&gt;20&lt;/span&gt;&lt;/font&gt;&lt;/div&gt;&lt;div style=&quot;&quot;&gt;&lt;font style=&quot;background-color: rgb(255, 255, 255); color: rgb(0, 0, 0);&quot;&gt;&lt;span&gt;ALTURA_PLANETA&lt;/span&gt;&lt;span&gt; &lt;/span&gt;&lt;span&gt;=&lt;/span&gt;&lt;span&gt; &lt;/span&gt;&lt;span&gt;32&lt;/span&gt;&lt;/font&gt;&lt;/div&gt;&lt;div style=&quot;&quot;&gt;&lt;font style=&quot;background-color: rgb(255, 255, 255); color: rgb(0, 0, 0);&quot;&gt;&lt;span&gt;ANCHURA_PLANETA&lt;/span&gt;&lt;span&gt; &lt;/span&gt;&lt;span&gt;=&lt;/span&gt;&lt;span&gt; &lt;/span&gt;&lt;span&gt;32&lt;/span&gt;&lt;/font&gt;&lt;/div&gt;&lt;div style=&quot;&quot;&gt;&lt;font style=&quot;background-color: rgb(255, 255, 255); color: rgb(0, 0, 0);&quot;&gt;&lt;span&gt;XX_ENTRE_PLANETAS&lt;/span&gt;&lt;span&gt; &lt;/span&gt;&lt;span&gt;=&lt;/span&gt;&lt;span&gt; &lt;/span&gt;&lt;span&gt;350&lt;/span&gt;&lt;/font&gt;&lt;/div&gt;&lt;div style=&quot;&quot;&gt;&lt;font style=&quot;background-color: rgb(255, 255, 255); color: rgb(0, 0, 0);&quot;&gt;&lt;span&gt;YY_ENTRE_PLANETA&lt;/span&gt;&lt;span&gt; &lt;/span&gt;&lt;span&gt;=&lt;/span&gt;&lt;span&gt; &lt;/span&gt;&lt;span&gt;125&lt;/span&gt;&lt;/font&gt;&lt;/div&gt;&lt;div style=&quot;&quot;&gt;&lt;font style=&quot;background-color: rgb(255, 255, 255); color: rgb(0, 0, 0);&quot;&gt;&lt;span&gt;VELOCIDAD_PLANETAS&lt;/span&gt;&lt;span&gt; &lt;/span&gt;&lt;span&gt;=&lt;/span&gt;&lt;span&gt; &lt;/span&gt;&lt;span&gt;2&lt;/span&gt;&lt;/font&gt;&lt;/div&gt;&lt;/div&gt;" style="rounded=0;whiteSpace=wrap;html=1;fillColor=#d5e8d4;gradientColor=#97d077;strokeColor=#82b366;" vertex="1" parent="1">
                    <mxGeometry x="175" y="530" width="250" height="145" as="geometry"/>
                </mxCell>
                <mxCell id="24" value="" style="edgeStyle=none;html=1;" edge="1" parent="1" source="21" target="23">
                    <mxGeometry relative="1" as="geometry"/>
                </mxCell>
                <mxCell id="21" value="&lt;div style=&quot;font-family: &amp;quot;Droid Sans Mono&amp;quot;, &amp;quot;monospace&amp;quot;, monospace; font-size: 14px; line-height: 19px; white-space: pre;&quot;&gt;&lt;div style=&quot;&quot;&gt;&lt;font style=&quot;color: rgb(0, 0, 0); background-color: light-dark(#ffffff, var(--ge-dark-color, #121212));&quot;&gt;PUNTOS = 0&lt;/font&gt;&lt;/div&gt;&lt;div style=&quot;&quot;&gt;&lt;font style=&quot;color: rgb(0, 0, 0); background-color: light-dark(#ffffff, var(--ge-dark-color, #121212));&quot;&gt;&lt;span&gt;FUENTE&lt;/span&gt;&lt;span&gt; &lt;/span&gt;&lt;span&gt;=&lt;/span&gt;&lt;span&gt; &lt;/span&gt;&lt;span&gt;pygame&lt;/span&gt;&lt;span&gt;.&lt;/span&gt;&lt;span&gt;font&lt;/span&gt;&lt;span&gt;.&lt;/span&gt;&lt;span&gt;Font&lt;/span&gt;&lt;span&gt;(&lt;/span&gt;&lt;span&gt;None&lt;/span&gt;&lt;span&gt;, &lt;/span&gt;&lt;span&gt;24&lt;/span&gt;&lt;span&gt;)&lt;/span&gt;&lt;/font&gt;&lt;/div&gt;&lt;div style=&quot;&quot;&gt;&lt;font style=&quot;color: rgb(0, 0, 0); background-color: light-dark(#ffffff, var(--ge-dark-color, #121212));&quot;&gt;MARCADOR = FUENTE.render(&quot;0 puntos&quot;, 1, (255, 0, 0))&lt;/font&gt;&lt;/div&gt;&lt;/div&gt;" style="rounded=0;whiteSpace=wrap;html=1;fillColor=#FFFF99;" vertex="1" parent="1">
                    <mxGeometry x="70" y="700" width="460" height="60" as="geometry"/>
                </mxCell>
                <mxCell id="78" style="edgeStyle=none;html=1;exitX=0.5;exitY=1;exitDx=0;exitDy=0;entryX=0.5;entryY=0;entryDx=0;entryDy=0;" edge="1" parent="1" source="23" target="26">
                    <mxGeometry relative="1" as="geometry"/>
                </mxCell>
                <mxCell id="23" value="&lt;div style=&quot;font-family: &amp;quot;Droid Sans Mono&amp;quot;, &amp;quot;monospace&amp;quot;, monospace; font-size: 14px; line-height: 19px; white-space: pre;&quot;&gt;&lt;div style=&quot;&quot;&gt;&lt;font style=&quot;color: rgb(0, 0, 0); background-color: light-dark(#ffffff, var(--ge-dark-color, #121212));&quot;&gt;IMG_COHETE = pygame.image.load(&quot;img/COHETE.png&quot;)&lt;/font&gt;&lt;/div&gt;&lt;div style=&quot;&quot;&gt;&lt;font style=&quot;color: rgb(0, 0, 0); background-color: light-dark(#ffffff, var(--ge-dark-color, #121212));&quot;&gt;&lt;span&gt;IMG_PLANETA_IZQUIERDO&lt;/span&gt;&lt;span&gt; &lt;/span&gt;&lt;span&gt;=&lt;/span&gt;&lt;span&gt; &lt;/span&gt;&lt;span&gt;pygame&lt;/span&gt;&lt;span&gt;.&lt;/span&gt;&lt;span&gt;image&lt;/span&gt;&lt;span&gt;.&lt;/span&gt;&lt;span&gt;load&lt;/span&gt;&lt;span&gt;(&lt;/span&gt;&lt;span&gt;&quot;img/PLANETA.png&quot;&lt;/span&gt;&lt;span&gt;)&lt;/span&gt;&lt;/font&gt;&lt;/div&gt;&lt;div style=&quot;&quot;&gt;&lt;font style=&quot;color: rgb(0, 0, 0); background-color: light-dark(#ffffff, var(--ge-dark-color, #121212));&quot;&gt;IMG_PLANETA_DERECHO = pygame.image.load(&quot;img/PLANETA.png&quot;)&lt;/font&gt;&lt;/div&gt;&lt;/div&gt;" style="rounded=0;whiteSpace=wrap;html=1;fillColor=#00FFFF;" vertex="1" parent="1">
                    <mxGeometry x="20" y="790" width="560" height="60" as="geometry"/>
                </mxCell>
                <mxCell id="77" style="edgeStyle=none;html=1;exitX=0.5;exitY=1;exitDx=0;exitDy=0;entryX=0.5;entryY=0;entryDx=0;entryDy=0;" edge="1" parent="1" source="25" target="29">
                    <mxGeometry relative="1" as="geometry"/>
                </mxCell>
                <mxCell id="25" value="&lt;span style=&quot;scrollbar-color: light-dark(#e2e2e2, #4b4b4b)&lt;br/&gt;&#x9;&#x9;&#x9;&#x9;&#x9;light-dark(#fbfbfb, var(--dark-panel-color)); font-family: &amp;quot;Droid Sans Mono&amp;quot;, &amp;quot;monospace&amp;quot;, monospace; font-size: 14px; white-space: pre; background-color: rgb(255, 255, 255);&quot;&gt;event&lt;/span&gt;&lt;span style=&quot;scrollbar-color: light-dark(#e2e2e2, #4b4b4b)&lt;br/&gt;&#x9;&#x9;&#x9;&#x9;&#x9;light-dark(#fbfbfb, var(--dark-panel-color)); font-family: &amp;quot;Droid Sans Mono&amp;quot;, &amp;quot;monospace&amp;quot;, monospace; font-size: 14px; white-space: pre; background-color: rgb(255, 255, 255);&quot;&gt; &lt;/span&gt;&lt;span style=&quot;scrollbar-color: light-dark(#e2e2e2, #4b4b4b)&lt;br/&gt;&#x9;&#x9;&#x9;&#x9;&#x9;light-dark(#fbfbfb, var(--dark-panel-color)); font-family: &amp;quot;Droid Sans Mono&amp;quot;, &amp;quot;monospace&amp;quot;, monospace; font-size: 14px; white-space: pre; background-color: rgb(255, 255, 255);&quot;&gt;in&lt;/span&gt;&lt;span style=&quot;scrollbar-color: light-dark(#e2e2e2, #4b4b4b)&lt;br/&gt;&#x9;&#x9;&#x9;&#x9;&#x9;light-dark(#fbfbfb, var(--dark-panel-color)); font-family: &amp;quot;Droid Sans Mono&amp;quot;, &amp;quot;monospace&amp;quot;, monospace; font-size: 14px; white-space: pre; background-color: rgb(255, 255, 255);&quot;&gt; &lt;/span&gt;&lt;span style=&quot;scrollbar-color: light-dark(#e2e2e2, #4b4b4b)&lt;br/&gt;&#x9;&#x9;&#x9;&#x9;&#x9;light-dark(#fbfbfb, var(--dark-panel-color)); font-family: &amp;quot;Droid Sans Mono&amp;quot;, &amp;quot;monospace&amp;quot;, monospace; font-size: 14px; white-space: pre; background-color: rgb(255, 255, 255);&quot;&gt;pygame&lt;/span&gt;&lt;span style=&quot;scrollbar-color: light-dark(#e2e2e2, #4b4b4b)&lt;br/&gt;&#x9;&#x9;&#x9;&#x9;&#x9;light-dark(#fbfbfb, var(--dark-panel-color)); font-family: &amp;quot;Droid Sans Mono&amp;quot;, &amp;quot;monospace&amp;quot;, monospace; font-size: 14px; white-space: pre; background-color: rgb(255, 255, 255);&quot;&gt;.&lt;/span&gt;&lt;span style=&quot;scrollbar-color: light-dark(#e2e2e2, #4b4b4b)&lt;br/&gt;&#x9;&#x9;&#x9;&#x9;&#x9;light-dark(#fbfbfb, var(--dark-panel-color)); font-family: &amp;quot;Droid Sans Mono&amp;quot;, &amp;quot;monospace&amp;quot;, monospace; font-size: 14px; white-space: pre; background-color: rgb(255, 255, 255);&quot;&gt;event&lt;/span&gt;&lt;span style=&quot;scrollbar-color: light-dark(#e2e2e2, #4b4b4b)&lt;br/&gt;&#x9;&#x9;&#x9;&#x9;&#x9;light-dark(#fbfbfb, var(--dark-panel-color)); font-family: &amp;quot;Droid Sans Mono&amp;quot;, &amp;quot;monospace&amp;quot;, monospace; font-size: 14px; white-space: pre; background-color: rgb(255, 255, 255);&quot;&gt;.&lt;/span&gt;&lt;span style=&quot;scrollbar-color: light-dark(#e2e2e2, #4b4b4b)&lt;br/&gt;&#x9;&#x9;&#x9;&#x9;&#x9;light-dark(#fbfbfb, var(--dark-panel-color)); font-family: &amp;quot;Droid Sans Mono&amp;quot;, &amp;quot;monospace&amp;quot;, monospace; font-size: 14px; white-space: pre; background-color: rgb(255, 255, 255);&quot;&gt;get&lt;/span&gt;&lt;span style=&quot;scrollbar-color: light-dark(#e2e2e2, #4b4b4b)&lt;br/&gt;&#x9;&#x9;&#x9;&#x9;&#x9;light-dark(#fbfbfb, var(--dark-panel-color)); font-family: &amp;quot;Droid Sans Mono&amp;quot;, &amp;quot;monospace&amp;quot;, monospace; font-size: 14px; white-space: pre; background-color: rgb(255, 255, 255);&quot;&gt;():&lt;/span&gt;" style="shape=hexagon;perimeter=hexagonPerimeter2;whiteSpace=wrap;html=1;fixedSize=1;fillColor=#CCFFFF;" vertex="1" parent="1">
                    <mxGeometry x="150" y="1060" width="300" height="80" as="geometry"/>
                </mxCell>
                <mxCell id="79" style="edgeStyle=none;html=1;exitX=0.5;exitY=1;exitDx=0;exitDy=0;entryX=0.5;entryY=0;entryDx=0;entryDy=0;" edge="1" parent="1" source="26" target="25">
                    <mxGeometry relative="1" as="geometry"/>
                </mxCell>
                <mxCell id="134" style="edgeStyle=none;html=1;entryX=0.5;entryY=0;entryDx=0;entryDy=0;" edge="1" parent="1" source="26" target="135">
                    <mxGeometry relative="1" as="geometry">
                        <mxPoint x="810" y="1030" as="targetPoint"/>
                        <Array as="points">
                            <mxPoint x="580" y="960"/>
                        </Array>
                    </mxGeometry>
                </mxCell>
                <mxCell id="26" value="&lt;div style=&quot;font-family: &amp;quot;Droid Sans Mono&amp;quot;, &amp;quot;monospace&amp;quot;, monospace; font-size: 14px; line-height: 19px; white-space: pre;&quot;&gt;not PARAR_JUEGO&lt;/div&gt;" style="rhombus;whiteSpace=wrap;html=1;fillColor=#FFCCE6;" vertex="1" parent="1">
                    <mxGeometry x="170" y="880" width="260" height="160" as="geometry"/>
                </mxCell>
                <mxCell id="43" style="edgeStyle=none;html=1;exitX=1;exitY=0.5;exitDx=0;exitDy=0;entryX=0.5;entryY=0;entryDx=0;entryDy=0;" edge="1" parent="1" source="29" target="32">
                    <mxGeometry relative="1" as="geometry">
                        <Array as="points">
                            <mxPoint x="575" y="1260"/>
                        </Array>
                    </mxGeometry>
                </mxCell>
                <mxCell id="52" style="edgeStyle=none;html=1;exitX=0;exitY=0.5;exitDx=0;exitDy=0;entryX=0;entryY=0.5;entryDx=0;entryDy=0;endArrow=none;endFill=0;" edge="1" parent="1" source="29" target="36">
                    <mxGeometry relative="1" as="geometry">
                        <mxPoint x="390" y="1760" as="targetPoint"/>
                        <Array as="points">
                            <mxPoint x="60" y="1260"/>
                            <mxPoint x="60" y="1840"/>
                            <mxPoint x="360" y="1840"/>
                            <mxPoint x="360" y="1730"/>
                        </Array>
                    </mxGeometry>
                </mxCell>
                <mxCell id="29" value="&lt;div style=&quot;font-family: &amp;quot;Droid Sans Mono&amp;quot;, &amp;quot;monospace&amp;quot;, monospace; font-size: 14px; line-height: 19px; white-space: pre;&quot;&gt;&lt;span style=&quot;background-color: rgb(255, 255, 255);&quot;&gt;&lt;font style=&quot;color: rgb(0, 0, 0);&quot;&gt;&lt;span&gt;event&lt;/span&gt;&lt;span&gt;.&lt;/span&gt;&lt;span&gt;type&lt;/span&gt;&lt;span&gt; &lt;/span&gt;&lt;span&gt;==&lt;/span&gt;&lt;span&gt; &lt;/span&gt;&lt;span&gt;pygame&lt;/span&gt;&lt;span&gt;.&lt;/span&gt;&lt;span&gt;KEYDOWN&lt;/span&gt;&lt;span&gt;:&lt;/span&gt;&lt;/font&gt;&lt;/span&gt;&lt;/div&gt;" style="rhombus;whiteSpace=wrap;html=1;fillColor=#FF0080;" vertex="1" parent="1">
                    <mxGeometry x="165" y="1160" width="270" height="200" as="geometry"/>
                </mxCell>
                <mxCell id="45" style="edgeStyle=none;html=1;exitX=1;exitY=0.5;exitDx=0;exitDy=0;entryX=0.5;entryY=0;entryDx=0;entryDy=0;" edge="1" parent="1" source="32" target="33">
                    <mxGeometry relative="1" as="geometry">
                        <Array as="points">
                            <mxPoint x="840" y="1390"/>
                        </Array>
                    </mxGeometry>
                </mxCell>
                <mxCell id="59" style="edgeStyle=none;html=1;exitX=0;exitY=0.5;exitDx=0;exitDy=0;entryX=0.5;entryY=0;entryDx=0;entryDy=0;" edge="1" parent="1" source="32" target="36">
                    <mxGeometry relative="1" as="geometry">
                        <Array as="points">
                            <mxPoint x="380" y="1390"/>
                            <mxPoint x="380" y="1600"/>
                            <mxPoint x="570" y="1600"/>
                        </Array>
                    </mxGeometry>
                </mxCell>
                <mxCell id="32" value="&lt;div style=&quot;font-family: &amp;quot;Droid Sans Mono&amp;quot;, &amp;quot;monospace&amp;quot;, monospace; font-size: 14px; line-height: 19px; white-space: pre;&quot;&gt;&lt;span&gt;&lt;font style=&quot;color: rgb(0, 0, 0);&quot;&gt;&lt;span&gt;event&lt;/span&gt;&lt;span&gt;.key &lt;/span&gt;&lt;span&gt;==&lt;/span&gt;&lt;span&gt; &lt;/span&gt;&lt;span&gt;pygame&lt;/span&gt;&lt;span&gt;.&lt;/span&gt;&lt;span&gt;K_ESCAPE&lt;/span&gt;&lt;span&gt;:&lt;/span&gt;&lt;/font&gt;&lt;/span&gt;&lt;/div&gt;" style="rhombus;whiteSpace=wrap;html=1;fillColor=#FF3333;" vertex="1" parent="1">
                    <mxGeometry x="425" y="1300" width="300" height="180" as="geometry"/>
                </mxCell>
                <mxCell id="91" style="edgeStyle=none;html=1;endArrow=none;endFill=0;" edge="1" parent="1" source="33">
                    <mxGeometry relative="1" as="geometry">
                        <mxPoint x="550" y="1600" as="targetPoint"/>
                        <Array as="points">
                            <mxPoint x="840" y="1600"/>
                        </Array>
                    </mxGeometry>
                </mxCell>
                <mxCell id="33" value="&lt;div style=&quot;font-family: &amp;quot;Droid Sans Mono&amp;quot;, &amp;quot;monospace&amp;quot;, monospace; font-size: 14px; line-height: 19px; white-space: pre;&quot;&gt;&lt;span&gt;&lt;font style=&quot;color: rgb(0, 0, 0);&quot;&gt;&lt;span&gt;PARAR_JUEGO&lt;/span&gt;&lt;span&gt; &lt;/span&gt;&lt;span&gt;=&lt;/span&gt;&lt;span&gt; &lt;/span&gt;&lt;span&gt;True&lt;/span&gt;&lt;/font&gt;&lt;/span&gt;&lt;/div&gt;" style="rounded=0;whiteSpace=wrap;html=1;fillColor=#FF0080;" vertex="1" parent="1">
                    <mxGeometry x="760" y="1430" width="160" height="60" as="geometry"/>
                </mxCell>
                <mxCell id="46" style="edgeStyle=none;html=1;entryX=0.5;entryY=0;entryDx=0;entryDy=0;" edge="1" parent="1" source="36" target="37">
                    <mxGeometry relative="1" as="geometry">
                        <Array as="points">
                            <mxPoint x="820" y="1730"/>
                        </Array>
                    </mxGeometry>
                </mxCell>
                <mxCell id="36" value="&lt;div style=&quot;font-family: &amp;quot;Droid Sans Mono&amp;quot;, &amp;quot;monospace&amp;quot;, monospace; font-size: 14px; line-height: 19px; white-space: pre;&quot;&gt;&lt;span&gt;&lt;font style=&quot;color: rgb(0, 0, 0);&quot;&gt;&lt;span&gt;event&lt;/span&gt;&lt;span&gt;.key &lt;/span&gt;&lt;span&gt;==&lt;/span&gt;&lt;span&gt; &lt;/span&gt;&lt;span&gt;pygame&lt;/span&gt;&lt;span&gt;.&lt;/span&gt;&lt;span&gt;K_RIGHT&lt;/span&gt;&lt;span&gt;:&lt;/span&gt;&lt;/font&gt;&lt;/span&gt;&lt;/div&gt;" style="rhombus;whiteSpace=wrap;html=1;fillColor=#FF0000;" vertex="1" parent="1">
                    <mxGeometry x="430" y="1640" width="280" height="180" as="geometry"/>
                </mxCell>
                <mxCell id="92" style="edgeStyle=none;html=1;exitX=0.5;exitY=1;exitDx=0;exitDy=0;endArrow=none;endFill=0;" edge="1" parent="1" source="37">
                    <mxGeometry relative="1" as="geometry">
                        <mxPoint x="360" y="1770" as="targetPoint"/>
                        <Array as="points">
                            <mxPoint x="815" y="1870"/>
                            <mxPoint x="360" y="1870"/>
                        </Array>
                    </mxGeometry>
                </mxCell>
                <mxCell id="37" value="&lt;div style=&quot;font-family: &amp;quot;Droid Sans Mono&amp;quot;, &amp;quot;monospace&amp;quot;, monospace; font-size: 14px; line-height: 19px; white-space: pre;&quot;&gt;&lt;span&gt;&lt;font style=&quot;color: rgb(0, 0, 0);&quot;&gt;&lt;span&gt;MOVIMIENTO_XX_COHETE&lt;/span&gt;&lt;span&gt; &lt;/span&gt;&lt;span&gt;=&lt;/span&gt;&lt;span&gt; &lt;/span&gt;&lt;span&gt;4&lt;/span&gt;&lt;/font&gt;&lt;/span&gt;&lt;/div&gt;" style="rounded=0;whiteSpace=wrap;html=1;fillColor=#0066CC;" vertex="1" parent="1">
                    <mxGeometry x="710" y="1770" width="210" height="60" as="geometry"/>
                </mxCell>
                <mxCell id="51" style="edgeStyle=none;html=1;exitX=1;exitY=0.5;exitDx=0;exitDy=0;entryX=0.5;entryY=0;entryDx=0;entryDy=0;" edge="1" parent="1" source="49" target="50">
                    <mxGeometry relative="1" as="geometry">
                        <Array as="points">
                            <mxPoint x="570" y="2035"/>
                        </Array>
                    </mxGeometry>
                </mxCell>
                <mxCell id="82" style="edgeStyle=none;html=1;exitX=0.5;exitY=1;exitDx=0;exitDy=0;" edge="1" parent="1" source="49">
                    <mxGeometry relative="1" as="geometry">
                        <mxPoint x="300" y="1050" as="targetPoint"/>
                        <Array as="points">
                            <mxPoint x="220" y="2370"/>
                            <mxPoint x="-530" y="2370"/>
                            <mxPoint x="-530" y="1050"/>
                        </Array>
                    </mxGeometry>
                </mxCell>
                <mxCell id="49" value="&lt;div style=&quot;font-family: &amp;quot;Droid Sans Mono&amp;quot;, &amp;quot;monospace&amp;quot;, monospace; font-size: 14px; line-height: 19px; white-space: pre;&quot;&gt;&lt;span&gt;&lt;font style=&quot;color: rgb(0, 0, 0);&quot;&gt;&lt;span&gt;XX_COHETE&lt;/span&gt;&lt;span&gt; &lt;/span&gt;&lt;span&gt;&amp;lt;&lt;/span&gt;&lt;span&gt; &lt;/span&gt;&lt;span&gt;-&lt;/span&gt;&lt;span&gt;10&lt;/span&gt;&lt;span&gt; &lt;/span&gt;&lt;span&gt;or&lt;/span&gt;&lt;span&gt; &lt;/span&gt;&lt;span&gt;XX_COHETE&lt;/span&gt;&lt;span&gt; &lt;/span&gt;&lt;span&gt;&amp;gt;&lt;/span&gt;&lt;span&gt; &lt;/span&gt;&lt;span&gt;ALTURA_VENTANA&lt;/span&gt;&lt;span&gt;:&lt;/span&gt;&lt;/font&gt;&lt;/span&gt;&lt;/div&gt;" style="rhombus;whiteSpace=wrap;html=1;fillColor=#00FF00;" vertex="1" parent="1">
                    <mxGeometry x="15" y="1890" width="410" height="290" as="geometry"/>
                </mxCell>
                <mxCell id="90" style="edgeStyle=none;html=1;endArrow=none;endFill=0;" edge="1" parent="1" source="50">
                    <mxGeometry relative="1" as="geometry">
                        <mxPoint x="220" y="2270" as="targetPoint"/>
                        <Array as="points">
                            <mxPoint x="570" y="2270"/>
                        </Array>
                    </mxGeometry>
                </mxCell>
                <mxCell id="50" value="&lt;div style=&quot;font-family: &amp;quot;Droid Sans Mono&amp;quot;, &amp;quot;monospace&amp;quot;, monospace; font-size: 14px; line-height: 19px; white-space: pre;&quot;&gt;&lt;span&gt;&lt;font style=&quot;color: rgb(0, 0, 0);&quot;&gt;&lt;span&gt;PARAR_JUEGO&lt;/span&gt;&lt;span&gt; &lt;/span&gt;&lt;span&gt;=&lt;/span&gt;&lt;span&gt; &lt;/span&gt;&lt;span&gt;True&lt;/span&gt;&lt;/font&gt;&lt;/span&gt;&lt;/div&gt;" style="rounded=0;whiteSpace=wrap;html=1;fillColor=#CCFFFF;" vertex="1" parent="1">
                    <mxGeometry x="485" y="2080" width="170" height="60" as="geometry"/>
                </mxCell>
                <mxCell id="81" style="edgeStyle=none;html=1;entryX=0.5;entryY=0;entryDx=0;entryDy=0;" edge="1" parent="1" source="53" target="55">
                    <mxGeometry relative="1" as="geometry">
                        <mxPoint x="140" y="2225" as="targetPoint"/>
                        <Array as="points">
                            <mxPoint x="40" y="2205"/>
                        </Array>
                    </mxGeometry>
                </mxCell>
                <mxCell id="109" style="edgeStyle=none;html=1;exitX=0;exitY=0.5;exitDx=0;exitDy=0;endArrow=none;endFill=0;" edge="1" parent="1" source="53">
                    <mxGeometry relative="1" as="geometry">
                        <mxPoint x="-510" y="2370" as="targetPoint"/>
                        <Array as="points">
                            <mxPoint x="-510" y="2200"/>
                        </Array>
                    </mxGeometry>
                </mxCell>
                <mxCell id="53" value="&lt;div style=&quot;font-family: &amp;quot;Droid Sans Mono&amp;quot;, &amp;quot;monospace&amp;quot;, monospace; font-size: 14px; line-height: 19px; white-space: pre;&quot;&gt;&lt;span&gt;&lt;font style=&quot;color: rgb(0, 0, 0);&quot;&gt;&lt;span&gt;XX_COHETE&lt;/span&gt;&lt;span&gt; &lt;/span&gt;&lt;span&gt;&amp;lt;&lt;/span&gt;&lt;span&gt; &lt;/span&gt;&lt;span&gt;-&lt;/span&gt;&lt;span&gt;10&lt;/span&gt;&lt;span&gt; &lt;/span&gt;&lt;span&gt;or&lt;/span&gt;&lt;span&gt; &lt;/span&gt;&lt;span&gt;XX_COHETE&lt;/span&gt;&lt;span&gt; &lt;/span&gt;&lt;span&gt;&amp;gt;&lt;/span&gt;&lt;span&gt; &lt;/span&gt;&lt;span&gt;ALTURA_VENTANA&lt;/span&gt;&lt;span&gt;:&lt;/span&gt;&lt;/font&gt;&lt;/span&gt;&lt;/div&gt;" style="rhombus;whiteSpace=wrap;html=1;fillColor=#FF99CC;" vertex="1" parent="1">
                    <mxGeometry x="-490" y="2060" width="425" height="290" as="geometry"/>
                </mxCell>
                <mxCell id="108" style="edgeStyle=none;html=1;endArrow=none;endFill=0;" edge="1" parent="1" source="55">
                    <mxGeometry relative="1" as="geometry">
                        <mxPoint x="35" y="2370" as="targetPoint"/>
                    </mxGeometry>
                </mxCell>
                <mxCell id="55" value="&lt;div style=&quot;font-family: &amp;quot;Droid Sans Mono&amp;quot;, &amp;quot;monospace&amp;quot;, monospace; font-size: 14px; line-height: 19px; white-space: pre;&quot;&gt;&lt;font style=&quot;color: rgb(0, 0, 0);&quot;&gt;&lt;font&gt;PARAR_JUEGO&lt;/font&gt;&lt;span&gt; &lt;/span&gt;&lt;span&gt;=&lt;/span&gt;&lt;span&gt; &lt;/span&gt;&lt;span&gt;True&lt;/span&gt;&lt;/font&gt;&lt;/div&gt;" style="rounded=0;whiteSpace=wrap;html=1;fillColor=#4D9900;" vertex="1" parent="1">
                    <mxGeometry x="-50" y="2240" width="170" height="60" as="geometry"/>
                </mxCell>
                <mxCell id="61" value="" style="endArrow=classic;startArrow=none;html=1;entryX=0.5;entryY=0;entryDx=0;entryDy=0;startFill=0;" edge="1" parent="1" target="49">
                    <mxGeometry width="50" height="50" relative="1" as="geometry">
                        <mxPoint x="220" y="1840" as="sourcePoint"/>
                        <mxPoint x="440" y="1710" as="targetPoint"/>
                    </mxGeometry>
                </mxCell>
                <mxCell id="67" value="" style="edgeStyle=none;html=1;" edge="1" parent="1" source="63" target="66">
                    <mxGeometry relative="1" as="geometry"/>
                </mxCell>
                <mxCell id="63" value="&lt;div style=&quot;font-family: &amp;quot;Droid Sans Mono&amp;quot;, &amp;quot;monospace&amp;quot;, monospace; font-size: 14px; line-height: 19px; white-space: pre;&quot;&gt;&lt;div style=&quot;&quot;&gt;&lt;span&gt;&lt;font style=&quot;color: rgb(0, 0, 0);&quot;&gt;&lt;span&gt;PANTALLA&lt;/span&gt;&lt;span&gt;.&lt;/span&gt;&lt;span&gt;fill&lt;/span&gt;&lt;span&gt;(&lt;/span&gt;&lt;span&gt;COLOR_FONDO&lt;/span&gt;&lt;span&gt;)&lt;/span&gt;&lt;/font&gt;&lt;/span&gt;&lt;/div&gt;&lt;span&gt;&lt;font style=&quot;color: rgb(0, 0, 0);&quot;&gt;&lt;br&gt;&lt;/font&gt;&lt;/span&gt;&lt;div style=&quot;&quot;&gt;&lt;span&gt;&lt;font style=&quot;color: rgb(0, 0, 0);&quot;&gt;&lt;span&gt;PANTALLA&lt;/span&gt;&lt;span&gt;.&lt;/span&gt;&lt;span&gt;blit&lt;/span&gt;&lt;span&gt;(&lt;/span&gt;&lt;span&gt;IMG_PLANETA_IZQUIERDO&lt;/span&gt;&lt;span&gt;, (&lt;/span&gt;&lt;span&gt;XX_PLANETA&lt;/span&gt;&lt;span&gt;, &lt;/span&gt;&lt;span&gt;YY_PLANETA&lt;/span&gt;&lt;span&gt;))&lt;/span&gt;&lt;/font&gt;&lt;/span&gt;&lt;/div&gt;&lt;div style=&quot;&quot;&gt;&lt;span&gt;&lt;font style=&quot;color: rgb(0, 0, 0);&quot;&gt;&lt;span&gt;PANTALLA&lt;/span&gt;&lt;span&gt;.&lt;/span&gt;&lt;span&gt;blit&lt;/span&gt;&lt;span&gt;(&lt;/span&gt;&lt;span&gt;IMG_PLANETA_DERECHO&lt;/span&gt;&lt;span&gt;, (&lt;/span&gt;&lt;span&gt;XX_PLANETA&lt;/span&gt;&lt;span&gt; &lt;/span&gt;&lt;span&gt;+&lt;/span&gt;&lt;span&gt; &lt;/span&gt;&lt;span&gt;XX_ENTRE_PLANETAS&lt;/span&gt;&lt;span&gt;,&lt;/span&gt;&lt;/font&gt;&lt;/span&gt;&lt;/div&gt;&lt;div style=&quot;&quot;&gt;&lt;span&gt;&lt;font style=&quot;color: rgb(0, 0, 0);&quot;&gt;&lt;span&gt; &lt;/span&gt;&lt;span&gt;YY_PLANETA&lt;/span&gt;&lt;span&gt; &lt;/span&gt;&lt;span&gt;+&lt;/span&gt;&lt;span&gt; &lt;/span&gt;&lt;span&gt;YY_ENTRE_PLANETA&lt;/span&gt;&lt;span&gt;))&lt;/span&gt;&lt;/font&gt;&lt;/span&gt;&lt;/div&gt;&lt;span&gt;&lt;font style=&quot;color: rgb(0, 0, 0);&quot;&gt;&lt;br&gt;&lt;/font&gt;&lt;/span&gt;&lt;div style=&quot;&quot;&gt;&lt;span&gt;&lt;font style=&quot;color: rgb(0, 0, 0);&quot;&gt;&lt;span&gt;YY_PLANETA&lt;/span&gt;&lt;span&gt; &lt;/span&gt;&lt;span&gt;=&lt;/span&gt;&lt;span&gt; &lt;/span&gt;&lt;span&gt;YY_PLANETA&lt;/span&gt;&lt;span&gt; &lt;/span&gt;&lt;span&gt;+&lt;/span&gt;&lt;span&gt; &lt;/span&gt;&lt;span&gt;VELOCIDAD_PLANETAS&lt;/span&gt;&lt;/font&gt;&lt;/span&gt;&lt;/div&gt;&lt;/div&gt;" style="rounded=0;whiteSpace=wrap;html=1;fillColor=light-dark(#FF66B3,#EDEDED);" vertex="1" parent="1">
                    <mxGeometry x="-100" y="2450" width="607.5" height="150" as="geometry"/>
                </mxCell>
                <mxCell id="87" style="edgeStyle=none;html=1;exitX=0.5;exitY=1;exitDx=0;exitDy=0;" edge="1" parent="1" source="66">
                    <mxGeometry relative="1" as="geometry">
                        <mxPoint x="203" y="2900" as="targetPoint"/>
                    </mxGeometry>
                </mxCell>
                <mxCell id="88" style="edgeStyle=none;html=1;exitX=1;exitY=0.5;exitDx=0;exitDy=0;entryX=0.5;entryY=0;entryDx=0;entryDy=0;" edge="1" parent="1" source="66" target="70">
                    <mxGeometry relative="1" as="geometry">
                        <Array as="points">
                            <mxPoint x="835" y="2750"/>
                        </Array>
                    </mxGeometry>
                </mxCell>
                <mxCell id="66" value="&lt;div style=&quot;font-family: &amp;quot;Droid Sans Mono&amp;quot;, &amp;quot;monospace&amp;quot;, monospace; font-size: 14px; line-height: 19px; white-space: pre;&quot;&gt;&lt;div style=&quot;&quot;&gt;&lt;pre style=&quot;-webkit-tap-highlight-color: transparent; user-select: text; font-family: &amp;quot;Courier New&amp;quot;, Courier, monospace, arial, sans-serif; margin-top: 0px; margin-bottom: 0px; text-wrap: wrap; overflow-wrap: break-word; color: rgb(0, 0, 0); text-align: left;&quot; class=&quot;ndfHFb-c4YZDc-fmcmS-DARUcf&quot;&gt;&lt;span&gt;YY_PLANETA &amp;gt; ANCHURA_VENTANA:&lt;/span&gt;&lt;/pre&gt;&lt;/div&gt;&lt;/div&gt;" style="rhombus;whiteSpace=wrap;html=1;fillColor=#9999FF;" vertex="1" parent="1">
                    <mxGeometry x="78.75" y="2650" width="250" height="200" as="geometry"/>
                </mxCell>
                <mxCell id="74" value="" style="edgeStyle=none;html=1;" edge="1" parent="1" source="68" target="73">
                    <mxGeometry relative="1" as="geometry"/>
                </mxCell>
                <mxCell id="68" value="&lt;div style=&quot;font-family: &amp;quot;Droid Sans Mono&amp;quot;, &amp;quot;monospace&amp;quot;, monospace; font-size: 14px; line-height: 19px; white-space: pre;&quot;&gt;&lt;div style=&quot;&quot;&gt;&lt;span&gt;&lt;font style=&quot;color: rgb(0, 0, 0);&quot;&gt;&lt;span&gt;PUNTO_INFERIOR_DERECHO_PRIMER_PLANETA_X&lt;/span&gt;&lt;span&gt; &lt;/span&gt;&lt;span&gt;=&lt;/span&gt;&lt;span&gt; &lt;/span&gt;&lt;span&gt;XX_PLANETA&lt;/span&gt;&lt;span&gt; &lt;/span&gt;&lt;span&gt;+&lt;/span&gt;&lt;span&gt; &lt;/span&gt;&lt;span&gt;ALTURA_PLANETA&lt;/span&gt;&lt;/font&gt;&lt;/span&gt;&lt;/div&gt;&lt;div style=&quot;&quot;&gt;&lt;span&gt;&lt;font style=&quot;color: rgb(0, 0, 0);&quot;&gt;&lt;span&gt; &lt;/span&gt;&lt;span&gt;PUNTO_INFERIOR_DERECHO_PRIMER_PLANETA_Y&lt;/span&gt;&lt;span&gt; &lt;/span&gt;&lt;span&gt;=&lt;/span&gt;&lt;span&gt; &lt;/span&gt;&lt;span&gt;YY_PLANETA&lt;/span&gt;&lt;span&gt; &lt;/span&gt;&lt;span&gt;+&lt;/span&gt;&lt;span&gt; &lt;/span&gt;&lt;span&gt;ANCHURA_PLANETA&lt;/span&gt;&lt;/font&gt;&lt;/span&gt;&lt;/div&gt;&lt;/div&gt;" style="rounded=0;whiteSpace=wrap;html=1;fillColor=#cdeb8b;strokeColor=#36393d;" vertex="1" parent="1">
                    <mxGeometry x="-100" y="2910" width="600" height="60" as="geometry"/>
                </mxCell>
                <mxCell id="70" value="&lt;div style=&quot;font-family: &amp;quot;Droid Sans Mono&amp;quot;, &amp;quot;monospace&amp;quot;, monospace; font-size: 14px; line-height: 19px; white-space: pre;&quot;&gt;&lt;div style=&quot;&quot;&gt;&lt;span&gt;&lt;font style=&quot;color: rgb(0, 0, 0);&quot;&gt;&lt;span&gt;        &lt;/span&gt;&lt;span&gt;XX_PLANETA&lt;/span&gt;&lt;span&gt; &lt;/span&gt;&lt;span&gt;=&lt;/span&gt;&lt;span&gt; &lt;/span&gt;&lt;span&gt;randint&lt;/span&gt;&lt;span&gt;(&lt;/span&gt;&lt;span&gt;55&lt;/span&gt;&lt;span&gt;, &lt;/span&gt;&lt;span&gt;150&lt;/span&gt;&lt;span&gt;)&lt;/span&gt;&lt;/font&gt;&lt;/span&gt;&lt;/div&gt;&lt;div style=&quot;&quot;&gt;&lt;span&gt;&lt;font style=&quot;color: rgb(0, 0, 0);&quot;&gt;&lt;span&gt;        &lt;/span&gt;&lt;span&gt;YY_PLANETA&lt;/span&gt;&lt;span&gt; &lt;/span&gt;&lt;span&gt;=&lt;/span&gt;&lt;span&gt; &lt;/span&gt;&lt;span&gt;25&lt;/span&gt;&lt;/font&gt;&lt;/span&gt;&lt;/div&gt;&lt;div style=&quot;&quot;&gt;&lt;span&gt;&lt;font style=&quot;color: rgb(0, 0, 0);&quot;&gt;&lt;span&gt;        &lt;/span&gt;&lt;span&gt;PUNTOS&lt;/span&gt;&lt;span&gt; &lt;/span&gt;&lt;span&gt;=&lt;/span&gt;&lt;span&gt; &lt;/span&gt;&lt;span&gt;PUNTOS&lt;/span&gt;&lt;span&gt; &lt;/span&gt;&lt;span&gt;+&lt;/span&gt;&lt;span&gt; &lt;/span&gt;&lt;span&gt;1&lt;/span&gt;&lt;/font&gt;&lt;/span&gt;&lt;/div&gt;&lt;div style=&quot;&quot;&gt;&lt;span&gt;&lt;font style=&quot;color: rgb(0, 0, 0);&quot;&gt;&lt;span&gt;        &lt;/span&gt;&lt;span&gt;MARCADOR&lt;/span&gt;&lt;span&gt; &lt;/span&gt;&lt;span&gt;=&lt;/span&gt;&lt;span&gt; &lt;/span&gt;&lt;span&gt;FUENTE&lt;/span&gt;&lt;span&gt;.&lt;/span&gt;&lt;span&gt;render&lt;/span&gt;&lt;span&gt;(&lt;/span&gt;&lt;span&gt;str&lt;/span&gt;&lt;span&gt;(&lt;/span&gt;&lt;span&gt;PUNTOS&lt;/span&gt;&lt;span&gt;) &lt;/span&gt;&lt;span&gt;+&lt;/span&gt;&lt;span&gt; &lt;/span&gt;&lt;span&gt;&quot; puntos&quot;&lt;/span&gt;&lt;span&gt;, &lt;/span&gt;&lt;span&gt;1&lt;/span&gt;&lt;span&gt;, (&lt;/span&gt;&lt;span&gt;255&lt;/span&gt;&lt;span&gt;, &lt;/span&gt;&lt;span&gt;0&lt;/span&gt;&lt;span&gt;, &lt;/span&gt;&lt;span&gt;0&lt;/span&gt;&lt;span&gt;))&lt;/span&gt;&lt;/font&gt;&lt;/span&gt;&lt;/div&gt;&lt;/div&gt;" style="rounded=0;whiteSpace=wrap;html=1;fillColor=#FFFF00;" vertex="1" parent="1">
                    <mxGeometry x="507.5" y="2780" width="655" height="110" as="geometry"/>
                </mxCell>
                <mxCell id="86" style="edgeStyle=none;html=1;exitX=1;exitY=0.5;exitDx=0;exitDy=0;entryX=0.5;entryY=0;entryDx=0;entryDy=0;" edge="1" parent="1" source="73" target="75">
                    <mxGeometry relative="1" as="geometry">
                        <Array as="points">
                            <mxPoint x="570" y="3210"/>
                        </Array>
                    </mxGeometry>
                </mxCell>
                <mxCell id="73" value="&lt;div style=&quot;font-family: &amp;quot;Droid Sans Mono&amp;quot;, &amp;quot;monospace&amp;quot;, monospace; font-size: 14px; line-height: 19px; white-space: pre;&quot;&gt;&lt;span&gt;&lt;font style=&quot;color: rgb(0, 0, 0);&quot;&gt;&lt;span&gt;PUNTO_INFERIOR_DERECHO_PRIMER_PLANETA_X&lt;/span&gt;&lt;span&gt; &lt;/span&gt;&lt;span&gt;&amp;gt;&lt;/span&gt;&lt;span&gt; &lt;/span&gt;&lt;span&gt;XX_COHETE&lt;/span&gt;&lt;span&gt;:&lt;/span&gt;&lt;/font&gt;&lt;/span&gt;&lt;/div&gt;" style="rhombus;whiteSpace=wrap;html=1;fillColor=#CC99FF;" vertex="1" parent="1">
                    <mxGeometry x="-26.869999999999997" y="3080" width="461.25" height="260" as="geometry"/>
                </mxCell>
                <mxCell id="94" style="edgeStyle=none;html=1;exitX=1;exitY=0.5;exitDx=0;exitDy=0;entryX=0.5;entryY=0;entryDx=0;entryDy=0;" edge="1" parent="1" source="75" target="93">
                    <mxGeometry relative="1" as="geometry">
                        <Array as="points">
                            <mxPoint x="890" y="3365"/>
                        </Array>
                    </mxGeometry>
                </mxCell>
                <mxCell id="103" style="edgeStyle=none;html=1;exitX=0;exitY=0.5;exitDx=0;exitDy=0;endArrow=none;endFill=0;" edge="1" parent="1" source="75">
                    <mxGeometry relative="1" as="geometry">
                        <mxPoint x="270" y="3780" as="targetPoint"/>
                        <Array as="points">
                            <mxPoint x="270" y="3365"/>
                        </Array>
                    </mxGeometry>
                </mxCell>
                <mxCell id="75" value="&lt;div style=&quot;font-family: &amp;quot;Droid Sans Mono&amp;quot;, &amp;quot;monospace&amp;quot;, monospace; font-size: 14px; line-height: 19px; white-space: pre;&quot;&gt;&lt;span&gt;&lt;font style=&quot;color: rgb(0, 0, 0);&quot;&gt;&lt;span&gt;PUNTO_INFERIOR_DERECHO_PRIMER_PLANETA_Y&lt;/span&gt;&lt;span&gt; &lt;/span&gt;&lt;span&gt;&amp;gt;&lt;/span&gt;&lt;span&gt; &lt;/span&gt;&lt;span&gt;YY_COHETE&lt;/span&gt;&lt;span&gt;:&lt;/span&gt;&lt;/font&gt;&lt;/span&gt;&lt;/div&gt;" style="rhombus;whiteSpace=wrap;html=1;fillColor=#CCFFCC;" vertex="1" parent="1">
                    <mxGeometry x="337.5" y="3250" width="465" height="230" as="geometry"/>
                </mxCell>
                <mxCell id="80" style="edgeStyle=none;html=1;exitX=0;exitY=0.5;exitDx=0;exitDy=0;entryX=0.5;entryY=0;entryDx=0;entryDy=0;" edge="1" parent="1" source="49" target="53">
                    <mxGeometry relative="1" as="geometry">
                        <Array as="points">
                            <mxPoint x="-280" y="2035"/>
                        </Array>
                    </mxGeometry>
                </mxCell>
                <mxCell id="84" style="edgeStyle=none;html=1;" edge="1" parent="1" source="49">
                    <mxGeometry relative="1" as="geometry">
                        <mxPoint x="220" y="2440" as="targetPoint"/>
                    </mxGeometry>
                </mxCell>
                <mxCell id="96" style="edgeStyle=none;html=1;exitX=1;exitY=0.5;exitDx=0;exitDy=0;entryX=0.5;entryY=0;entryDx=0;entryDy=0;" edge="1" parent="1" source="93" target="95">
                    <mxGeometry relative="1" as="geometry">
                        <Array as="points">
                            <mxPoint x="1280" y="3565"/>
                        </Array>
                    </mxGeometry>
                </mxCell>
                <mxCell id="97" style="edgeStyle=none;html=1;entryX=0;entryY=0.5;entryDx=0;entryDy=0;endArrow=none;endFill=0;exitX=0.5;exitY=1;exitDx=0;exitDy=0;" edge="1" parent="1" source="95" target="73">
                    <mxGeometry relative="1" as="geometry">
                        <mxPoint x="-110" y="3210" as="targetPoint"/>
                        <Array as="points">
                            <mxPoint x="1280" y="3780"/>
                            <mxPoint x="890" y="3780"/>
                            <mxPoint x="-100" y="3780"/>
                            <mxPoint x="-100" y="3210"/>
                        </Array>
                    </mxGeometry>
                </mxCell>
                <mxCell id="104" style="edgeStyle=none;html=1;exitX=0;exitY=0.5;exitDx=0;exitDy=0;endArrow=none;endFill=0;" edge="1" parent="1" source="93">
                    <mxGeometry relative="1" as="geometry">
                        <mxPoint x="520" y="3780" as="targetPoint"/>
                        <Array as="points">
                            <mxPoint x="520" y="3565"/>
                        </Array>
                    </mxGeometry>
                </mxCell>
                <mxCell id="93" value="&lt;div style=&quot;font-family: &amp;quot;Droid Sans Mono&amp;quot;, &amp;quot;monospace&amp;quot;, monospace; font-size: 14px; line-height: 19px; white-space: pre;&quot;&gt;&lt;span&gt;&lt;font style=&quot;color: rgb(0, 0, 0);&quot;&gt;&lt;span&gt;PUNTO_INFERIOR_DERECHO_PRIMER_PLANETA_Y&lt;/span&gt;&lt;span&gt; &lt;/span&gt;&lt;span&gt;&amp;lt;&lt;/span&gt;&lt;span&gt; &lt;/span&gt;&lt;span&gt;YY_COHETE&lt;/span&gt;&lt;span&gt; &lt;/span&gt;&lt;span&gt;+&lt;/span&gt;&lt;span&gt; &lt;/span&gt;&lt;span&gt;ANCHURA_COHETE&lt;/span&gt;&lt;span&gt;:&lt;/span&gt;&lt;/font&gt;&lt;/span&gt;&lt;/div&gt;" style="rhombus;whiteSpace=wrap;html=1;fillColor=#66FF66;" vertex="1" parent="1">
                    <mxGeometry x="580" y="3400" width="620" height="330" as="geometry"/>
                </mxCell>
                <mxCell id="95" value="&lt;div style=&quot;font-family: &amp;quot;Droid Sans Mono&amp;quot;, &amp;quot;monospace&amp;quot;, monospace; font-size: 14px; line-height: 19px; white-space: pre;&quot;&gt;&lt;span&gt;&lt;font style=&quot;color: rgb(0, 0, 0);&quot;&gt;&lt;span&gt;PARAR_JUEGO&lt;/span&gt;&lt;span&gt; &lt;/span&gt;&lt;span&gt;=&lt;/span&gt;&lt;span&gt; &lt;/span&gt;&lt;span&gt;True&lt;/span&gt;&lt;/font&gt;&lt;/span&gt;&lt;/div&gt;" style="rounded=0;whiteSpace=wrap;html=1;fillColor=#FF6666;" vertex="1" parent="1">
                    <mxGeometry x="1200" y="3600" width="160" height="60" as="geometry"/>
                </mxCell>
                <mxCell id="133" style="edgeStyle=none;html=1;exitX=0.5;exitY=1;exitDx=0;exitDy=0;entryX=0.5;entryY=0;entryDx=0;entryDy=0;" edge="1" parent="1" source="105" target="112">
                    <mxGeometry relative="1" as="geometry"/>
                </mxCell>
                <mxCell id="105" value="&lt;div style=&quot;font-family: &amp;quot;Droid Sans Mono&amp;quot;, &amp;quot;monospace&amp;quot;, monospace; font-size: 14px; line-height: 19px; white-space: pre;&quot;&gt;&lt;div style=&quot;&quot;&gt;&lt;span&gt;&lt;font style=&quot;color: rgb(0, 0, 0);&quot;&gt;&lt;span&gt;PUNTO_INFERIOR_IZQUIERDO_SEGUNDO_PLANETA_X&lt;/span&gt;&lt;span&gt; &lt;/span&gt;&lt;span&gt;=&lt;/span&gt;&lt;span&gt; &lt;/span&gt;&lt;span&gt;XX_PLANETA&lt;/span&gt;&lt;span&gt; &lt;/span&gt;&lt;span&gt;+&lt;/span&gt;&lt;span&gt; &lt;/span&gt;&lt;span&gt;XX_ENTRE_PLANETAS&lt;/span&gt;&lt;/font&gt;&lt;/span&gt;&lt;/div&gt;&lt;div style=&quot;&quot;&gt;&lt;span&gt;&lt;font style=&quot;color: rgb(0, 0, 0);&quot;&gt;&lt;span&gt;    &lt;/span&gt;&lt;span&gt;PUNTO_INFERIOR_IZQUIERDO_SEGUNDO_PLANETA_Y&lt;/span&gt;&lt;span&gt; &lt;/span&gt;&lt;span&gt;=&lt;/span&gt;&lt;span&gt; &lt;/span&gt;&lt;span&gt;YY_PLANETA&lt;/span&gt;&lt;span&gt; &lt;/span&gt;&lt;span&gt;+&lt;/span&gt;&lt;span&gt; \&lt;/span&gt;&lt;/font&gt;&lt;/span&gt;&lt;/div&gt;&lt;div style=&quot;&quot;&gt;&lt;span&gt;&lt;font style=&quot;color: rgb(0, 0, 0);&quot;&gt;&lt;span&gt;        &lt;/span&gt;&lt;span&gt;YY_ENTRE_PLANETA&lt;/span&gt;&lt;span&gt; &lt;/span&gt;&lt;span&gt;+&lt;/span&gt;&lt;span&gt; &lt;/span&gt;&lt;span&gt;ANCHURA_PLANETA&lt;/span&gt;&lt;/font&gt;&lt;/span&gt;&lt;/div&gt;&lt;/div&gt;" style="rounded=0;whiteSpace=wrap;html=1;fillColor=#cce5ff;strokeColor=#36393d;" vertex="1" parent="1">
                    <mxGeometry x="130" y="3830" width="645" height="60" as="geometry"/>
                </mxCell>
                <mxCell id="111" value="" style="endArrow=classic;html=1;entryX=0.5;entryY=0;entryDx=0;entryDy=0;" edge="1" parent="1" target="105">
                    <mxGeometry width="50" height="50" relative="1" as="geometry">
                        <mxPoint x="453" y="3780" as="sourcePoint"/>
                        <mxPoint x="500" y="3820" as="targetPoint"/>
                    </mxGeometry>
                </mxCell>
                <mxCell id="112" value="&lt;div style=&quot;font-family: &amp;quot;Droid Sans Mono&amp;quot;, &amp;quot;monospace&amp;quot;, monospace; font-size: 14px; line-height: 19px; white-space: pre;&quot;&gt;&lt;span&gt;&lt;font style=&quot;color: rgb(0, 0, 0);&quot;&gt;&lt;span&gt;XX_COHETE&lt;/span&gt;&lt;span&gt; &lt;/span&gt;&lt;span&gt;+&lt;/span&gt;&lt;span&gt; &lt;/span&gt;&lt;span&gt;ALTURA_COHETE&lt;/span&gt;&lt;span&gt; &lt;/span&gt;&lt;span&gt;&amp;gt;&lt;/span&gt;&lt;span&gt; &lt;/span&gt;&lt;span&gt;PUNTO_INFERIOR_IZQUIERDO_SEGUNDO_PLANETA_X&lt;/span&gt;&lt;span&gt;:&lt;/span&gt;&lt;/font&gt;&lt;/span&gt;&lt;/div&gt;" style="rhombus;whiteSpace=wrap;html=1;fillColor=#ffcc99;strokeColor=#36393d;" vertex="1" parent="1">
                    <mxGeometry x="132.5" y="3930" width="640" height="370" as="geometry"/>
                </mxCell>
                <mxCell id="117" style="edgeStyle=none;html=1;exitX=1;exitY=0.5;exitDx=0;exitDy=0;entryX=0.5;entryY=0;entryDx=0;entryDy=0;" edge="1" parent="1" source="113" target="116">
                    <mxGeometry relative="1" as="geometry">
                        <Array as="points">
                            <mxPoint x="1320" y="4325"/>
                        </Array>
                    </mxGeometry>
                </mxCell>
                <mxCell id="126" style="edgeStyle=none;html=1;exitX=0;exitY=0.5;exitDx=0;exitDy=0;endArrow=none;endFill=0;" edge="1" parent="1" source="113">
                    <mxGeometry relative="1" as="geometry">
                        <mxPoint x="600" y="4800" as="targetPoint"/>
                        <Array as="points">
                            <mxPoint x="600" y="4325"/>
                        </Array>
                    </mxGeometry>
                </mxCell>
                <mxCell id="113" value="&lt;div style=&quot;font-family: &amp;quot;Droid Sans Mono&amp;quot;, &amp;quot;monospace&amp;quot;, monospace; font-size: 14px; line-height: 19px; white-space: pre;&quot;&gt;&lt;span&gt;&lt;font style=&quot;color: rgb(0, 0, 0);&quot;&gt;&lt;span&gt;XX_COHETE&lt;/span&gt;&lt;span&gt; &lt;/span&gt;&lt;span&gt;&amp;lt;&lt;/span&gt;&lt;span&gt; &lt;/span&gt;&lt;span&gt;PUNTO_INFERIOR_IZQUIERDO_SEGUNDO_PLANETA_Y&lt;/span&gt;&lt;span&gt;:&lt;/span&gt;&lt;/font&gt;&lt;/span&gt;&lt;/div&gt;" style="rhombus;whiteSpace=wrap;html=1;fillColor=#9933FF;" vertex="1" parent="1">
                    <mxGeometry x="640" y="4170" width="500" height="310" as="geometry"/>
                </mxCell>
                <mxCell id="114" style="edgeStyle=none;html=1;exitX=1;exitY=0.5;exitDx=0;exitDy=0;entryX=0.5;entryY=0;entryDx=0;entryDy=0;" edge="1" parent="1" source="112" target="113">
                    <mxGeometry relative="1" as="geometry">
                        <Array as="points">
                            <mxPoint x="890" y="4115"/>
                        </Array>
                    </mxGeometry>
                </mxCell>
                <mxCell id="122" style="edgeStyle=none;html=1;exitX=1;exitY=0.5;exitDx=0;exitDy=0;entryX=0.5;entryY=0;entryDx=0;entryDy=0;" edge="1" parent="1" source="116" target="119">
                    <mxGeometry relative="1" as="geometry">
                        <Array as="points">
                            <mxPoint x="1745" y="4550"/>
                        </Array>
                    </mxGeometry>
                </mxCell>
                <mxCell id="125" style="edgeStyle=none;html=1;exitX=0;exitY=0.5;exitDx=0;exitDy=0;endArrow=none;endFill=0;" edge="1" parent="1" source="116">
                    <mxGeometry relative="1" as="geometry">
                        <mxPoint x="950" y="4800" as="targetPoint"/>
                        <Array as="points">
                            <mxPoint x="950" y="4550"/>
                        </Array>
                    </mxGeometry>
                </mxCell>
                <mxCell id="116" value="&lt;div style=&quot;font-family: &amp;quot;Droid Sans Mono&amp;quot;, &amp;quot;monospace&amp;quot;, monospace; font-size: 14px; line-height: 19px; white-space: pre;&quot;&gt;&lt;span&gt;&lt;font style=&quot;color: rgb(0, 0, 0);&quot;&gt;&lt;span&gt;XX_COHETE&lt;/span&gt;&lt;span&gt; &lt;/span&gt;&lt;span&gt;+&lt;/span&gt;&lt;span&gt; &lt;/span&gt;&lt;span&gt;ANCHURA_COHETE&lt;/span&gt;&lt;span&gt; &lt;/span&gt;&lt;span&gt;&amp;gt;&lt;/span&gt;&lt;span&gt; &lt;/span&gt;&lt;span&gt;PUNTO_INFERIOR_IZQUIERDO_SEGUNDO_PLANETA_Y&lt;/span&gt;&lt;span&gt;:&lt;/span&gt;&lt;/font&gt;&lt;/span&gt;&lt;/div&gt;" style="rhombus;whiteSpace=wrap;html=1;fillColor=#CC0066;" vertex="1" parent="1">
                    <mxGeometry x="1000" y="4360" width="640" height="380" as="geometry"/>
                </mxCell>
                <mxCell id="124" style="edgeStyle=none;html=1;endArrow=none;endFill=0;entryX=0;entryY=0.5;entryDx=0;entryDy=0;" edge="1" parent="1" source="119" target="112">
                    <mxGeometry relative="1" as="geometry">
                        <mxPoint x="-24" y="4330" as="targetPoint"/>
                        <Array as="points">
                            <mxPoint x="1745" y="4800"/>
                            <mxPoint x="90" y="4800"/>
                            <mxPoint x="90" y="4115"/>
                        </Array>
                    </mxGeometry>
                </mxCell>
                <mxCell id="119" value="&lt;div style=&quot;font-family: &amp;quot;Droid Sans Mono&amp;quot;, &amp;quot;monospace&amp;quot;, monospace; font-size: 14px; line-height: 19px; white-space: pre;&quot;&gt;&lt;span&gt;&lt;font style=&quot;color: rgb(0, 0, 0);&quot;&gt;&lt;span&gt;PARAR_JUEGO&lt;/span&gt;&lt;span&gt; &lt;/span&gt;&lt;span&gt;=&lt;/span&gt;&lt;span&gt; &lt;/span&gt;&lt;span&gt;True&lt;/span&gt;&lt;/font&gt;&lt;/span&gt;&lt;/div&gt;" style="rounded=0;whiteSpace=wrap;html=1;fillColor=#FF3399;" vertex="1" parent="1">
                    <mxGeometry x="1660" y="4600" width="170" height="60" as="geometry"/>
                </mxCell>
                <mxCell id="130" style="edgeStyle=none;html=1;exitX=0.5;exitY=1;exitDx=0;exitDy=0;" edge="1" parent="1" source="127">
                    <mxGeometry relative="1" as="geometry">
                        <mxPoint x="300" y="860" as="targetPoint"/>
                        <Array as="points">
                            <mxPoint x="840" y="5120"/>
                            <mxPoint x="-680" y="5110"/>
                            <mxPoint x="-680" y="860"/>
                        </Array>
                    </mxGeometry>
                </mxCell>
                <mxCell id="127" value="&lt;div style=&quot;font-family: &amp;quot;Droid Sans Mono&amp;quot;, &amp;quot;monospace&amp;quot;, monospace; font-size: 14px; line-height: 19px; white-space: pre;&quot;&gt;&lt;div style=&quot;&quot;&gt;&lt;span&gt;&lt;font style=&quot;color: rgb(0, 0, 0);&quot;&gt;&lt;span&gt;    &lt;/span&gt;&lt;span&gt;XX_COHETE&lt;/span&gt;&lt;span&gt; &lt;/span&gt;&lt;span&gt;=&lt;/span&gt;&lt;span&gt; &lt;/span&gt;&lt;span&gt;XX_COHETE&lt;/span&gt;&lt;span&gt; &lt;/span&gt;&lt;span&gt;+&lt;/span&gt;&lt;span&gt; &lt;/span&gt;&lt;span&gt;MOVIMIENTO_XX_COHETE&lt;/span&gt;&lt;/font&gt;&lt;/span&gt;&lt;/div&gt;&lt;div style=&quot;&quot;&gt;&lt;span&gt;&lt;font style=&quot;color: rgb(0, 0, 0);&quot;&gt;&lt;span&gt;    &lt;/span&gt;&lt;span&gt;PANTALLA&lt;/span&gt;&lt;span&gt;.&lt;/span&gt;&lt;span&gt;blit&lt;/span&gt;&lt;span&gt;(&lt;/span&gt;&lt;span&gt;MARCADOR&lt;/span&gt;&lt;span&gt;, (&lt;/span&gt;&lt;span&gt;20&lt;/span&gt;&lt;span&gt;, &lt;/span&gt;&lt;span&gt;580&lt;/span&gt;&lt;span&gt;))&lt;/span&gt;&lt;/font&gt;&lt;/span&gt;&lt;/div&gt;&lt;div style=&quot;&quot;&gt;&lt;span&gt;&lt;font style=&quot;color: rgb(0, 0, 0);&quot;&gt;&lt;span&gt;    &lt;/span&gt;&lt;span&gt;PANTALLA&lt;/span&gt;&lt;span&gt;.&lt;/span&gt;&lt;span&gt;blit&lt;/span&gt;&lt;span&gt;(&lt;/span&gt;&lt;span&gt;IMG_COHETE&lt;/span&gt;&lt;span&gt;, (&lt;/span&gt;&lt;span&gt;XX_COHETE&lt;/span&gt;&lt;span&gt;, &lt;/span&gt;&lt;span&gt;YY_COHETE&lt;/span&gt;&lt;span&gt;))&lt;/span&gt;&lt;/font&gt;&lt;/span&gt;&lt;/div&gt;&lt;div style=&quot;&quot;&gt;&lt;span&gt;&lt;font style=&quot;color: rgb(0, 0, 0);&quot;&gt;&lt;span&gt;    &lt;/span&gt;&lt;span&gt;pygame&lt;/span&gt;&lt;span&gt;.&lt;/span&gt;&lt;span&gt;display&lt;/span&gt;&lt;span&gt;.&lt;/span&gt;&lt;span&gt;update&lt;/span&gt;&lt;span&gt;()&lt;/span&gt;&lt;/font&gt;&lt;/span&gt;&lt;/div&gt;&lt;/div&gt;" style="rounded=0;whiteSpace=wrap;html=1;fillColor=#66CC00;" vertex="1" parent="1">
                    <mxGeometry x="600" y="4910" width="480" height="110" as="geometry"/>
                </mxCell>
                <mxCell id="128" value="" style="endArrow=classic;html=1;entryX=0.5;entryY=0;entryDx=0;entryDy=0;" edge="1" parent="1" target="127">
                    <mxGeometry width="50" height="50" relative="1" as="geometry">
                        <mxPoint x="840" y="4800" as="sourcePoint"/>
                        <mxPoint x="980" y="4610" as="targetPoint"/>
                    </mxGeometry>
                </mxCell>
                <mxCell id="135" value="FIN" style="ellipse;whiteSpace=wrap;html=1;fillColor=#FF8000;" vertex="1" parent="1">
                    <mxGeometry x="550" y="1000" width="70" height="40" as="geometry"/>
                </mxCell>
            </root>
        </mxGraphModel>
    </diagram>
</mxfile>